<svg xmlns="http://www.w3.org/2000/svg" width="57" height="58" viewBox="0 0 57 58"><defs><mask id="xu8hb" width="2.01" height="2.01" x="-1" y="-1"><path fill="#fff" d="M3.8 2.8h48.4v48.4H3.8z"/><path d="M28 3c13.255 0 24 10.745 24 24S41.255 51 28 51 4 40.255 4 27 14.745 3 28 3z"/></mask><filter id="xu8ha" width="78.2" height="80.2" x="-11.1" y="-12.1" filterUnits="userSpaceOnUse"><feOffset dy="2" in="SourceGraphic" result="FeOffset1023Out"/><feGaussianBlur in="FeOffset1023Out" result="FeGaussianBlur1024Out" stdDeviation="1.9600000000000002 1.9600000000000002"/></filter></defs><g><g><g filter="url(#xu8ha)"><path fill="none" stroke="#212121" stroke-opacity=".35" stroke-width=".4" d="M28 3c13.255 0 24 10.745 24 24S41.255 51 28 51 4 40.255 4 27 14.745 3 28 3z" mask="url(&quot;#xu8hb&quot;)"/><path fill="#212121" fill-opacity=".35" d="M28 3c13.255 0 24 10.745 24 24S41.255 51 28 51 4 40.255 4 27 14.745 3 28 3z"/></g><path fill="#fff" d="M28 3c13.255 0 24 10.745 24 24S41.255 51 28 51 4 40.255 4 27 14.745 3 28 3z"/></g></g></svg>